<svg xmlns="http://www.w3.org/2000/svg" width="22" height="19" viewBox="0 0 22 19">
    <path fill="#A98C66" fill-rule="evenodd" stroke="#A98C66" d="M10.56 3.151C9.68 2.031 8.745 1.256 7.745.844 6.775.446 5.75.395 4.67.685c-1.535.411-2.624 1.284-3.3 2.379C.59 4.322.353 5.866.582 7.324c.597 3.79 4.259 7.465 10.83 11.102 6.191-3.583 9.586-7.254 10.03-11.082.174-1.496-.036-3.084-.828-4.364-.653-1.056-1.706-1.893-3.251-2.294-1.123-.291-2.181-.24-3.173.16-1.018.411-1.963 1.185-2.844 2.305-.14.178-.27.355-.393.531-.122-.176-.253-.353-.393-.531z"/>
</svg>
