<svg xmlns="http://www.w3.org/2000/svg" width="23" height="21" viewBox="0 0 23 21">
    <g fill="none" fill-rule="evenodd" stroke="#4D5C6F">
        <path d="M10.792 0.491L10.792 16.682" transform="translate(.708 1)"/>
        <path stroke-width="2" d="M5.782 18.769c-1.897.308-3.727.308-5.49 0V2.705c1.99.272 3.82.272 5.49 0 1.67-.27 3.34-.84 5.01-1.705l.44.22c1.478.71 3.081 1.205 4.81 1.485 1.9.31 3.65.31 5.25 0h0V18.77c-1.766.284-3.516.286-5.25.004s-3.484-.851-5.25-1.71h0c-1.443.83-3.113 1.398-5.01 1.706z" transform="translate(.708 1)"/>
    </g>
</svg>
