<svg xmlns="http://www.w3.org/2000/svg" width="23" height="21" viewBox="0 0 23 21">
    <g fill="none" fill-rule="evenodd" transform="translate(.174 1)">
        <path stroke="#4E5D70" stroke-width="2" d="M20.814.18c.387.436 0 1.707 0 2.389 0 .863-.386 1.619-.964 2.038 1.244 1.492 1.976 3.325 1.976 5.306h0v2.905c-1.753.3-3.212.879-4.375 1.739C15.617 15.913 13.927 19 11.326 19c-2.626 0-4.212-2.704-6.054-4.084-1.124-.842-2.606-1.542-4.446-2.098h0V9.913c0-2.181.888-4.183 2.368-5.749-.32-.422-.516-.981-.516-1.595 0-.682-.387-1.953 0-2.388.361-.407 1.477 0 2.014 0 .885 0 1.636.676 1.907 1.616 1.42-.62 3.026-.97 4.727-.97 2.012 0 3.893.489 5.49 1.339.16-1.127.988-1.985 1.984-1.985.537 0 1.653-.407 2.014 0z"/>
        <ellipse cx="11.826" cy="15.5" fill="#4D5C6F" rx="2" ry="1.5"/>
        <path stroke="#4E5D70" d="M1.826 12.148l3.87-3.05c.657-.52 1.611-.406 2.13.252.049.062.092.127.13.195.498.884.26 2-.552 2.604L4.917 14h0l-1.464-.818-1.627-1.034zM20.826 12.148l-3.87-3.05c-.657-.52-1.611-.406-2.13.252-.049.062-.092.127-.13.195-.498.884-.26 2 .553 2.604L17.735 14h0l1.464-.818 1.627-1.034z"/>
    </g>
</svg>
