<svg xmlns="http://www.w3.org/2000/svg" xmlns:xlink="http://www.w3.org/1999/xlink" width="160" height="32" viewBox="0 0 160 32">
    <defs>
        <path id="i7srv7hxua" d="M1.646 32L111.313 32 111.313 0 1.646 0z"/>
    </defs>
    <g fill="none" fill-rule="evenodd">
        <g fill="#FFF">
            <path d="M.395 32L15.419 32 15.419 17.171.395 17.171zM18.581 14.829L33.605 14.829 33.605 0 18.581 0zM28.86 32L32.814 32 32.814 28.098 28.86 28.098z" transform="translate(.72)"/>
        </g>
        <g transform="translate(47.72)">
            <path fill="#FFF" d="M2.075 3.557V17.22c1.17-1.536 2.686-3.043 3.523-3.631 2.388-1.679 4.81-2.246 5.757-2.311l.294-.02c2.425-.16 4.177-.275 4.34-3.63.051-1.039-.22-1.857-.83-2.5-1.447-1.53-4.336-1.572-4.365-1.572H2.075zm0 28.443H.091V1.561h10.703c.152 0 3.751.025 5.803 2.192.99 1.045 1.452 2.382 1.374 3.975-.25 5.132-3.826 5.367-6.192 5.523l-.288.02c-.61.041-2.65.474-4.757 1.955-1.625 1.142-4.21 4.418-4.298 5.247l-.36-.002V32z"/>
            <path fill="#FFF" d="M16.727 32c-.182-.15-4.477-3.688-6.98-6.994-2.801-3.7-4.155-8.68-4.212-8.89l1.905-.506c.012.048 1.315 4.826 3.88 8.213 2.361 3.12 6.617 6.627 6.66 6.661L16.727 32zM41.313 30.439h-1.877V9.223c-.002-.296-.121-7.307-7.355-7.307-2.027 0-3.628.62-4.757 1.84-2.212 2.391-2.02 6.311-2.017 6.35l.002.055v20.278H23.43V10.185c-.02-.448-.148-4.852 2.528-7.744C27.457.82 29.517 0 32.08 0c9.127 0 9.232 9.13 9.232 9.223v21.216z"/>
            <path fill="#FFF" d="M24.994 24.195l-1.57-1.182c.162-.229 4.008-5.63 7.182-7.742 1.807-1.203 2.561-1.463 4.095-1.937.683-.21 1.416-.364 2.125-.512 1.26-.264 2.563-.536 3.431-1.115l1.056 1.683c-1.176.784-2.663 1.095-4.1 1.396-.698.146-1.356.283-1.954.468-1.377.426-1.947.602-3.598 1.7-2.874 1.913-6.629 7.188-6.667 7.241"/>
            <mask id="aaiyom35yb" fill="#fff">
                <use xlink:href="#i7srv7hxua"/>
            </mask>
            <path fill="#FFF" d="M45.98 32L47.535 32 47.535 1.561 45.98 1.561z" mask="url(#aaiyom35yb)"/>
            <path fill="#FFF" d="M47.88 17.951l-1.9-.462c.082-.357 2.052-8.77 5.98-11.316 1.438-.933 3.303-1.712 5.543-2.315 1.45-.391 3.531-1.636 4.622-3.858l1.744.906c-1.14 2.32-3.444 4.242-5.871 4.895-2.047.552-3.728 1.25-4.997 2.072-2.7 1.75-4.611 7.868-5.12 10.078" mask="url(#aaiyom35yb)"/>
            <path fill="#FFF" d="M64.598 32c-.303-.133-7.445-3.304-10.05-6.633-2.833-3.62-4.605-10.572-4.68-10.866l1.933-.452c.017.068 1.75 6.862 4.334 10.164 2.302 2.942 9.22 6.013 9.29 6.044L64.597 32zM80.101 32c-9.127 0-9.232-9.13-9.232-9.222V1.56h1.877v21.217c.002.295.12 7.306 7.355 7.306 2.027 0 3.628-.62 4.757-1.84 2.212-2.391 2.019-6.31 2.017-6.35l-.002-.055V1.561h1.877v20.254c.021.448.149 4.852-2.527 7.744C84.725 31.18 82.665 32 80.101 32M111.313 30.439h-1.877V9.223c-.002-.296-.121-7.307-7.355-7.307-2.027 0-3.628.62-4.757 1.84-2.212 2.391-2.019 6.311-2.017 6.35l.002.055v20.278H93.43V10.185c-.02-.447-.148-4.852 2.528-7.744C97.457.82 99.517 0 102.08 0c9.127 0 9.232 9.13 9.232 9.223v21.216z" mask="url(#aaiyom35yb)"/>
        </g>
    </g>
</svg>
