<svg xmlns="http://www.w3.org/2000/svg" width="22" height="19" viewBox="0 0 22 19">
    <path fill="#FFF" fill-rule="evenodd" stroke="#FFF" d="M14.191.846c.992-.4 2.05-.451 3.173-.16 1.545.4 2.598 1.238 3.251 2.294.792 1.28 1.002 2.868.829 4.364-.445 3.828-3.84 7.499-10.03 11.082C4.841 14.789 1.18 11.113.583 7.324c-.23-1.458.007-3.002.785-4.26.677-1.095 1.766-1.968 3.3-2.379 1.082-.29 2.106-.24 3.075.16 1 .41 1.935 1.185 2.817 2.306.14.178.27.355.393.531.122-.177.253-.353.393-.531.881-1.12 1.826-1.894 2.844-2.305z"/>
</svg>
